<svg width="31" height="31" viewBox="0 0 31 31" fill="none" xmlns="http://www.w3.org/2000/svg">
<path d="M15.4141 1.6875C7.97192 1.6875 1.9375 7.72192 1.9375 15.1641C1.9375 22.6062 7.97192 28.6406 15.4141 28.6406C22.8562 28.6406 28.8906 22.6062 28.8906 15.1641C28.8906 7.72192 22.8562 1.6875 15.4141 1.6875Z" stroke="#24B685" stroke-width="3.125" stroke-miterlimit="10"/>
<path d="M13.3633 13.1133H15.707V21.6094" stroke="#24B685" stroke-width="3.125" stroke-linecap="round" stroke-linejoin="round"/>
<path d="M12.4844 21.9023H18.9297" stroke="#24B685" stroke-width="3.125" stroke-miterlimit="10" stroke-linecap="round"/>
<path d="M15.4141 6.52148C15.0374 6.52148 14.6693 6.63317 14.3561 6.84242C14.0429 7.05166 13.7989 7.34907 13.6547 7.69704C13.5106 8.045 13.4729 8.42789 13.5464 8.79729C13.6198 9.16669 13.8012 9.506 14.0675 9.77232C14.3338 10.0386 14.6732 10.22 15.0426 10.2935C15.412 10.367 15.7948 10.3293 16.1428 10.1851C16.4908 10.041 16.7882 9.79691 16.9974 9.48375C17.2067 9.17059 17.3184 8.80242 17.3184 8.42578C17.3184 7.92073 17.1177 7.43636 16.7606 7.07924C16.4035 6.72211 15.9191 6.52148 15.4141 6.52148V6.52148Z" fill="#24B685"/>
</svg>
