<svg width="28" height="33" viewBox="0 0 28 33" fill="none" xmlns="http://www.w3.org/2000/svg">
<path d="M9.3125 8.69336C9.3125 8.69336 7.52832 7.81445 14 7.81445C16.3178 7.81445 18.5835 8.50175 20.5106 9.78942C22.4377 11.0771 23.9398 12.9073 24.8267 15.0486C25.7137 17.19 25.9458 19.5462 25.4936 21.8194C25.0414 24.0926 23.9253 26.1807 22.2864 27.8196C20.6475 29.4585 18.5594 30.5746 16.2862 31.0268C14.013 31.479 11.6568 31.2469 9.51543 30.3599C7.37411 29.473 5.54389 27.9709 4.25622 26.0438C2.96855 24.1167 2.28125 21.851 2.28125 19.5332" stroke="#24B685" stroke-width="3.125" stroke-miterlimit="10" stroke-linecap="round"/>
<path d="M14 2.24805L8.14062 8.10742L14 13.9668" stroke="#24B685" stroke-width="3.125" stroke-linecap="round" stroke-linejoin="round"/>
</svg>
